HIERARCHY
ROOT Hips
{
	OFFSET -3.958830 18.904000 13.208200
	CHANNELS 6 Xposition Yposition Zposition Zrotation Yrotation Xrotation 
	JOINT LHipJoint
	{
		OFFSET 0.000000 0.000000 0.000000
		CHANNELS 3 Zrotation Yrotation Xrotation
		JOINT LeftUpLeg
		{
			OFFSET 1.800000 -1.400000 0.085000
			CHANNELS 3 Zrotation Yrotation Xrotation
			JOINT LeftLeg
			{
				OFFSET 2.215000 -6.000000 0.000000
				CHANNELS 3 Zrotation Yrotation Xrotation
				JOINT LeftFoot
				{
					OFFSET 2.500000 -6.900000 0.000000
					CHANNELS 3 Zrotation Yrotation Xrotation
					JOINT LeftToeBase
					{
						OFFSET 0.200000 -0.500000 1.950000
						CHANNELS 3 Zrotation Yrotation Xrotation
						End Site
						{
							OFFSET 0.000000 0.000000 0.000000
						}
					}
				}
			}
		}
	}
	JOINT RHipJoint
	{
		OFFSET 0.000000 0.000000 0.000000
		CHANNELS 3 Zrotation Yrotation Xrotation
		JOINT RightUpLeg
		{
			OFFSET -1.800000 -1.400000 0.085000
			CHANNELS 3 Zrotation Yrotation Xrotation
			JOINT RightLeg
			{
				OFFSET -2.215000 -6.000000 0.000000
				CHANNELS 3 Zrotation Yrotation Xrotation
				JOINT RightFoot
				{
					OFFSET -2.500000 -6.900000 0.000000
					CHANNELS 3 Zrotation Yrotation Xrotation
					JOINT RightToeBase
					{
						OFFSET -0.200000 -0.500000 1.950000
						CHANNELS 3 Zrotation Yrotation Xrotation
						End Site
						{
							OFFSET 0.000000 0.000000 0.000000
						}
					}
				}
			}
		}
	}
	JOINT LowerBack
	{
		OFFSET 0.000000 0.000000 0.000000
		CHANNELS 3 Zrotation Yrotation Xrotation
		JOINT Spine
		{
			OFFSET -0.087000 1.940000 -0.288900
			CHANNELS 3 Zrotation Yrotation Xrotation
			JOINT Spine1
			{
				OFFSET 0.000000 1.950000 0.060000
				CHANNELS 3 Zrotation Yrotation Xrotation
				JOINT Neck
				{
					OFFSET 0.000000 0.000000 0.000000
					CHANNELS 3 Zrotation Yrotation Xrotation
					JOINT Neck1
					{
						OFFSET 0.000000 1.600000 0.340000
						CHANNELS 3 Zrotation Yrotation Xrotation
						JOINT Head
						{
							OFFSET 0.000000 1.667000 -0.240000
							CHANNELS 3 Zrotation Yrotation Xrotation
							End Site
							{
								OFFSET 0.000000 0.000000 0.000000
							}
						}
					}
				}
				JOINT LeftShoulder
				{
					OFFSET 0.000000 0.000000 0.000000
					CHANNELS 3 Zrotation Yrotation Xrotation
					JOINT LeftArm
					{
						OFFSET 2.700000 1.550000 -0.730000
						CHANNELS 3 Zrotation Yrotation Xrotation
						JOINT LeftForeArm
						{
							OFFSET 5.450000 0.000000 0.000000
							CHANNELS 3 Zrotation Yrotation Xrotation
							JOINT LeftHand
							{
								OFFSET 3.450000 0.000000 0.000000
								CHANNELS 3 Zrotation Yrotation Xrotation
								JOINT LeftHandIndex1
								{
									OFFSET 0.750000 0.000000 0.000000
									CHANNELS 3 Zrotation Yrotation Xrotation
									End Site
									{
										OFFSET 0.000000 0.000000 0.000000
									}
								}
							}
						}
					}
				}
				JOINT RightShoulder
				{
					OFFSET 0.000000 0.000000 0.000000
					CHANNELS 3 Zrotation Yrotation Xrotation
					JOINT RightArm
					{
						OFFSET -2.700000 1.550000 -0.730000
						CHANNELS 3 Zrotation Yrotation Xrotation
						JOINT RightForeArm
						{
							OFFSET -5.450000 0.000000 0.000000
							CHANNELS 3 Zrotation Yrotation Xrotation
							JOINT RightHand
							{
								OFFSET -3.450000 0.000000 0.000000
								CHANNELS 3 Zrotation Yrotation Xrotation
								JOINT RightHandIndex1
								{
									OFFSET -0.750000 0.000000 0.000000
									CHANNELS 3 Zrotation Yrotation Xrotation
									End Site
									{
										OFFSET 0.000000 0.000000 0.000000
									}
								}
							}
						}
					}
				}
			}
		}
	}
}
MOTION
Frames: 6
Frame Time: 0.016667
-0.893580 16.447920 -2.455810 -1.574298 -6.903461 -10.699411 -15.246149 11.165653 5.126525 33.017459 -3.033016 -22.881447 -25.888063 24.311235 42.162116 1.419830 11.480934 0.346754 0.267840 0.277370 0.399130 18.460606 -9.571260 2.970477 -26.872800 1.540492 -27.417561 14.778863 -22.217068 53.287198 -1.599591 -9.803243 0.795384 -0.061090 -0.319370 -0.013560 -3.800176 -0.741938 -9.329015 31.013108 -7.401574 32.527012 -5.660486 2.550507 -6.957561 2.434295 8.853746 -13.561282 23.815996 -23.419623 46.714765 10.906700 -12.194050 -14.523020 -8.557162 -0.906248 2.224437 -33.391134 4.226246 -10.035330 39.389721 -51.673172 -14.829349 -3.041836 2.774153 0.573120 -0.384490 0.488610 -0.001550 1.058602 0.917056 9.460923 56.544729 -3.376804 -13.055927 -4.060706 36.726952 -2.394210 2.478582 -1.064403 0.038970 0.098490 -0.202100 -0.061000 
-0.909860 16.441990 -2.430820 -1.552624 -7.266023 -9.939686 -15.287886 11.151310 5.174564 33.176229 -2.879515 -23.622007 -25.811358 24.506308 42.455182 1.408218 11.531784 0.322911 0.271400 0.276790 0.417390 18.439606 -9.444432 3.019837 -26.977941 1.696594 -28.106873 15.098971 -22.487339 53.294126 -1.610749 -9.847030 0.776304 -0.058040 -0.335360 -0.006760 -3.718718 -0.887761 -9.363683 31.932881 -7.326407 31.837733 -5.562277 3.071558 -7.858596 2.820715 9.255738 -13.519527 24.825908 -23.891373 44.139581 10.582000 -11.982010 -15.746520 -9.251203 -0.273591 1.979560 -34.622801 4.265419 -9.760428 35.983286 -50.200044 -12.640203 -3.068526 2.816853 0.583230 -0.385710 0.493070 -0.013580 0.688392 0.533302 9.550649 56.484167 -3.427595 -12.920686 -3.824228 37.118698 -2.300357 2.469691 -1.074430 0.034930 0.086290 -0.203730 -0.077180 
-0.928070 16.449710 -2.402880 -1.191577 -7.655532 -9.300514 -15.304915 11.163916 5.157187 32.861398 -2.732366 -23.803373 -25.875110 24.464700 42.139846 1.394860 11.476210 0.330875 0.284310 0.289370 0.437790 18.426467 -9.385887 3.077596 -27.295667 1.813292 -28.639965 15.332426 -22.570293 53.100294 -1.611286 -9.848632 0.764516 -0.053380 -0.358210 0.011150 -3.675480 -0.949081 -9.373152 32.424670 -6.933748 30.945284 -5.597281 3.597752 -8.621976 3.079703 9.674297 -13.511738 25.564952 -24.281428 41.786605 9.824970 -11.737660 -16.734220 -9.995928 -0.085932 1.847252 -34.756421 4.345674 -9.429297 32.215302 -48.906598 -10.574719 -3.083328 2.872251 0.584240 -0.386940 0.505180 -0.019550 0.654070 0.406824 9.653421 56.857707 -3.726790 -12.963785 -3.517279 37.307751 -2.226496 2.466307 -1.095142 0.046340 0.060930 -0.213880 -0.085760 
-0.940930 16.479040 -2.370770 -1.148907 -8.150806 -8.537119 -15.295347 11.210806 5.124926 32.588590 -2.513860 -23.734252 -25.803363 24.074658 41.277461 1.364262 11.309937 0.374113 0.296490 0.299020 0.449620 18.424799 -9.395853 3.103654 -27.086244 1.999393 -28.944039 15.427863 -22.278886 52.400270 -1.581970 -9.719735 0.790643 -0.054740 -0.378330 0.029310 -3.684817 -0.952386 -9.352548 33.683464 -6.764826 29.813914 -6.287802 4.090602 -9.486477 3.262610 9.878298 -13.330056 25.357535 -24.368854 39.805646 9.380010 -11.852860 -17.847530 -10.411148 0.304898 1.589423 -34.924988 3.811291 -8.821539 28.477860 -46.508364 -8.357418 -3.099988 2.932905 0.581660 -0.394340 0.513860 -0.021200 0.381092 0.186855 9.779641 57.754096 -3.985581 -12.939452 -3.059428 37.012548 -2.086159 2.474044 -1.119603 0.063540 0.031490 -0.224530 -0.086200 
-0.963330 16.513340 -2.336320 -0.927730 -8.564405 -7.459281 -15.274697 11.231548 5.072306 32.014502 -2.307276 -23.761096 -25.782679 23.571623 40.146133 1.284749 11.106368 0.421720 0.307810 0.309720 0.455530 18.433246 -9.429720 3.147813 -26.898085 2.195670 -29.411232 15.584527 -21.871305 51.384181 -1.529508 -9.549912 0.830848 -0.038690 -0.392040 0.038810 -3.721005 -0.864257 -9.328005 34.211574 -6.168554 28.121339 -6.340599 4.510677 -9.785182 3.476150 10.128915 -13.144663 24.780019 -24.473377 37.311711 7.815240 -11.843080 -19.000640 -11.005339 0.288987 1.507437 -35.378965 3.874123 -8.568051 26.559395 -44.664822 -7.217838 -3.119161 2.951062 0.582810 -0.391180 0.508810 -0.026000 0.322578 0.159367 9.740164 58.341544 -4.026618 -12.734758 -2.386317 36.289008 -1.902647 2.464787 -1.138126 0.061520 0.018600 -0.222380 -0.096740 
-0.991940 16.553720 -2.295370 -0.663162 -8.552169 -6.209877 -15.222389 11.195194 4.985634 31.235870 -2.181260 -23.846063 -25.675588 22.873247 38.747743 1.202006 10.847817 0.497563 0.299390 0.287700 0.448160 18.473212 -9.507364 3.224466 -26.956959 2.221888 -29.936097 16.073402 -21.674630 50.144074 -1.468413 -9.415383 0.857162 -0.040640 -0.384080 0.056250 -3.842869 -0.604322 -9.293756 34.528962 -5.476904 25.763526 -6.566924 4.662876 -10.007426 3.442356 10.436355 -12.831268 24.187063 -24.034171 34.414294 6.564690 -11.684310 -18.960400 -11.372292 0.274306 1.606571 -35.735466 4.299336 -8.446880 25.517737 -43.931003 -6.665162 -3.146250 2.984024 0.567590 -0.370740 0.482450 -0.032530 0.502379 -0.265026 9.473150 59.123324 -4.120603 -12.501768 -1.620226 35.406361 -1.694342 2.464696 -1.167457 0.057540 -0.007620 -0.210810 -0.103380 
